<?xml version="1.0" encoding="UTF-8" standalone="no"?>
<!-- Created with Inkscape (http://www.inkscape.org/) -->

<svg
   width="143.25314mm"
   height="133.52628mm"
   viewBox="0 0 143.25314 133.52628"
   version="1.1"
   id="svg1"
   sodipodi:docname="Ramstein-logo-custom.svg"
   inkscape:version="1.3.2 (091e20e, 2023-11-25, custom)"
   inkscape:export-filename="Ramstein-logo-custom.png"
   inkscape:export-xdpi="96"
   inkscape:export-ydpi="96"
   xmlns:inkscape="http://www.inkscape.org/namespaces/inkscape"
   xmlns:sodipodi="http://sodipodi.sourceforge.net/DTD/sodipodi-0.dtd"
   xmlns="http://www.w3.org/2000/svg"
   xmlns:svg="http://www.w3.org/2000/svg">
  <sodipodi:namedview
     id="namedview1"
     pagecolor="#ffffff"
     bordercolor="#000000"
     borderopacity="0.25"
     inkscape:showpageshadow="2"
     inkscape:pageopacity="0.0"
     inkscape:pagecheckerboard="0"
     inkscape:deskcolor="#d1d1d1"
     inkscape:document-units="mm"
     inkscape:zoom="2.3243084"
     inkscape:cx="270.61813"
     inkscape:cy="286.75196"
     inkscape:window-width="2560"
     inkscape:window-height="1369"
     inkscape:window-x="1912"
     inkscape:window-y="-8"
     inkscape:window-maximized="1"
     inkscape:current-layer="layer1" />
  <defs
     id="defs1" />
  <g
     id="layer1"
     transform="translate(-45.959138,-89.455247)">
    <path
       style="font-variation-settings:normal;opacity:1;fill:#fa2a2a;fill-opacity:1;fill-rule:evenodd;stroke:#000000;stroke-width:12;stroke-linecap:butt;stroke-linejoin:miter;stroke-miterlimit:4;stroke-dasharray:none;stroke-dashoffset:0;stroke-opacity:1;paint-order:stroke fill markers;stop-color:#000000;stop-opacity:1"
       id="path1"
       d="m 201.54086,-105 a 53.044754,53.044754 0 0 1 -32.7454,49.006963 53.044754,53.044754 0 0 1 -57.80766,-11.498658 53.044754,53.044754 0 0 1 -11.498653,-57.807655 53.044754,53.044754 0 0 1 49.006963,-32.7454 V -105 Z"
       transform="rotate(90)" />
    <path
       style="font-variation-settings:normal;fill:#fa2a2a;fill-opacity:1;fill-rule:evenodd;stroke:#000000;stroke-width:12;stroke-linecap:butt;stroke-linejoin:miter;stroke-miterlimit:4;stroke-dasharray:none;stroke-dashoffset:0;stroke-opacity:1;paint-order:stroke fill markers;stop-color:#000000"
       id="path1-2"
       d="m 186.85544,-105 a 38.359333,38.359333 0 0 1 -23.67985,35.439403 38.359333,38.359333 0 0 1 -41.80363,-8.315259 38.359333,38.359333 0 0 1 -8.31525,-41.803624 38.359333,38.359333 0 0 1 35.4394,-23.67985 V -105 Z"
       transform="rotate(90)" />
    <path
       style="font-variation-settings:normal;fill:#fa2a2a;fill-opacity:1;fill-rule:evenodd;stroke:#000000;stroke-width:12;stroke-linecap:butt;stroke-linejoin:miter;stroke-miterlimit:4;stroke-dasharray:none;stroke-dashoffset:0;stroke-opacity:1;paint-order:stroke fill markers;stop-color:#000000"
       id="path1-2-1"
       d="m 171.66363,-105 a 23.167517,23.167517 0 0 1 -14.3017,21.403995 23.167517,23.167517 0 0 1 -25.24773,-5.022087 23.167517,23.167517 0 0 1 -5.02209,-25.247738 23.167517,23.167517 0 0 1 21.404,-14.30169 V -105 Z"
       transform="rotate(90)" />
    <path
       style="font-variation-settings:normal;fill:#000000;fill-opacity:1;fill-rule:evenodd;stroke:#000000;stroke-width:12;stroke-linecap:butt;stroke-linejoin:miter;stroke-miterlimit:4;stroke-dasharray:none;stroke-dashoffset:0;stroke-opacity:1;paint-order:stroke fill markers;stop-color:#000000"
       id="path1-2-1-7"
       d="m 156.59971,-104.9974 a 8.1022997,8.1022997 0 0 1 -5.00169,7.48555 8.1022997,8.1022997 0 0 1 -8.82981,-1.756357 8.1022997,8.1022997 0 0 1 -1.75635,-8.829803 8.1022997,8.1022997 0 0 1 7.48555,-5.00169 v 8.1023 z"
       transform="rotate(90)" />
    <path
       style="fill:#ffffff;fill-opacity:1;stroke:#000000;stroke-width:5.39999995;stroke-miterlimit:4;stroke-dasharray:none;stroke-opacity:1;paint-order:markers stroke fill"
       d="m 108.49488,220.21438 v -67.91642 h 64.31202 v 31.79206 l 12.60621,36.12436 -30.77309,0.0633 -13.66047,-36.18766 h -2.51514 v 36.12436 z"
       id="path3" />
  </g>
</svg>
